Coordinates
version=1
nRows=7
nColumns=33
inDegrees=yes

Units are S.I. units (second, meters, Newtons, ...)
Angles are in degrees.

endheader
time	ground_thorax_rot_x	ground_thorax_rot_y	ground_thorax_rot_z	ground_thorax_tx	ground_thorax_ty	ground_thorax_tz	clav_prot_r	clav_elev_r	scapula_abduction_r	scapula_elevation_r	scapula_upward_rot_r	scapula_winging_r	shoulder_elv_r	plane_of_elev_r	axial_rot_r	elbow_flexion_r	pro_sup_r	wrist_flex_r	wrist_dev_r	clav_prot_l	clav_elev_l	scapula_abduction_l	scapula_elevation_l	scapula_upward_rot_l	scapula_winging_l	shoulder_elv_l	plane_of_elev_l	axial_rot_l	elbow_flexion_l	pro_sup_l	wrist_flex_l	wrist_dev_l
      2.32000000	      2.22701118	      9.23480331	     -2.65579102	     -0.15219254	      1.00401118	      0.01165482	    -13.80426930	    -17.60674419	    -16.63947659	    -11.64930038	      5.12356530	      7.46322393	     43.53030315	    -16.11283636	     27.84084124	     34.82289969	      1.95333776	     -6.52497613	     24.15070336	      2.09249623	     -9.15044055	     -5.24596927	     -1.53884190	     -9.75516585	     -1.04874278	     50.24171859	    -13.02950111	    -12.70501177	     57.53097377	      1.11202107	     22.44596159	     12.64149479
      2.33000000	      2.13102378	      9.42478465	     -2.65223316	     -0.15199853	      1.00343658	      0.01134237	    -13.69251481	    -17.35951926	    -16.47055650	    -11.40522268	      5.12695343	      7.28840485	     42.77896730	    -14.84263321	     27.30672357	     32.53367083	      3.47314365	     -4.91975010	     23.34800135	      2.28223321	     -8.81882047	     -5.41587417	     -2.03295495	    -10.19802927	     -0.92449541	     50.19247063	    -10.78607845	    -12.43179587	     55.07537622	      2.42634599	     23.37793266	     11.65749753
      2.34000000	      2.19629988	      9.44572878	     -2.64002662	     -0.15182428	      1.00384369	      0.01129707	    -13.39060489	    -17.75453047	    -15.93059832	    -11.76498657	      5.11373761	      7.50203984	     42.89075549	    -14.61769105	     27.44444155	     31.24512746	      3.85285969	     -5.13611325	     23.24801067	      2.55489077	     -9.37640538	     -5.95358818	     -1.50266547	    -10.14865870	     -0.91770378	     50.24367493	    -10.25722214	    -12.75217987	     53.24122687	      2.83338774	     23.44149431	     11.84174947
      2.35000000	      2.15249975	      9.62567207	     -2.71680452	     -0.15142786	      1.00359313	      0.01105822	    -13.34208783	    -17.67879145	    -15.88353095	    -11.67111156	      5.06013134	      7.45881109	     42.42511679	    -13.71145284	     26.69106000	     29.72912098	      5.70507071	     -4.11600354	     22.35860861	      2.72357857	     -9.28246049	     -6.17562557	     -1.68347815	    -10.36639090	     -0.83185906	     50.08545157	     -8.38258795	    -12.49535608	     50.69664167	      4.34505979	     23.88401044	     10.55990931
      2.36000000	      2.15912739	      9.63047451	     -2.70287064	     -0.15120737	      1.00399582	      0.01096423	    -13.06325570	    -18.02131909	    -15.40139572	    -11.97415761	      5.02526719	      7.64260139	     42.49424510	    -13.50939432	     26.77527418	     28.62935874	      6.07245435	     -4.31782785	     22.27219622	      2.97729867	     -9.81320727	     -6.68771421	     -1.15779772	    -10.26853847	     -0.82300602	     50.14446329	     -7.90852244	    -12.77733709	     48.88324771	      4.74905301	     23.93808007	     10.72298970
      2.37000000	      2.06123329	      9.76079008	     -2.78810422	     -0.15097888	      1.00350509	      0.01077746	    -12.97373285	    -17.88753553	    -15.26854369	    -11.83468976	      5.01239098	      7.54154454	     41.99426209	    -12.70199402	     25.81475478	     27.49746997	      8.36077636	     -3.45852070	     21.32855163	      3.27453895	     -9.50649419	     -7.16844051	     -1.47119404	    -10.32735703	     -0.55222680	     49.91838409	     -6.07946647	    -12.68545199	     46.29280444	      6.34612775	     24.43080591	      8.85559507
      2.38000000	      2.13924015	      9.66877995	     -2.76641666	     -0.15060092	      1.00410386	      0.01070578	    -12.84231512	    -18.18157057	    -15.02709920	    -12.10852573	      5.00136021	      7.71875182	     42.03994749	    -12.53620620	     25.64650447	     26.75320937	      8.68891930	     -3.63026048	     21.16282253	      3.45492307	    -10.08994427	     -7.53846042	     -0.91221151	    -10.26806735	     -0.61871992	     49.84886846	     -5.64273392	    -12.66473394	     44.36295587	      6.75295789	     24.43740642	      9.03451912
